<?xml version="1.0" encoding="UTF-8"?>
<svg id="Calque_1" xmlns="http://www.w3.org/2000/svg" version="1.1" viewBox="0 0 977.33 481.1">
  <!-- Generator: Adobe Illustrator 29.2.0, SVG Export Plug-In . SVG Version: 2.1.0 Build 108)  -->
  <defs>
    <style>
      .st0 {
        fill: #F5F5F5;
      }
    </style>
  </defs>
  <rect class="st0" x="109.42" y="323.74" width="54.71" height="54.06"/>
  <rect class="st0" y="54.71" width="54.71" height="371.68"/>
  <rect class="st0" x="922.62" y="54.71" width="54.71" height="371.68"/>
  <rect class="st0" x="54.41" y="426.39" width="868.21" height="54.71"/>
  <rect class="st0" x="54.41" width="868.21" height="54.71"/>
  <polygon class="st0" points="327.6 163.48 327.6 216.9 273.54 216.9 273.54 377.81 218.83 377.81 218.83 108.77 273.54 108.77 273.54 162.19 326.32 162.19 326.32 108.77 381.03 108.77 381.03 163.48 327.6 163.48"/>
  <path class="st0" d="M542.23,270.96h-106.2v53.43h106.2v-53.43ZM434.74,378.45v-53.42h-53.42v-55.36h53.42v-53.42h107.49v-52.78h-107.49v-54.71h108.14v53.42h53.42v216.26h-161.56Z"/>
  <polygon class="st0" points="759.77 163.48 759.77 216.9 705.71 216.9 705.71 378.45 651 378.45 651 108.77 705.71 108.77 705.71 162.19 758.48 162.19 758.48 108.77 813.19 108.77 813.19 163.48 759.77 163.48"/>
</svg>